<svg id="icon" xmlns="http://www.w3.org/2000/svg" viewBox="0 0 512 512"><title>payment app</title><path d="M382.8,450.94V61.06A39.86,39.86,0,0,0,343,21.24H169A39.87,39.87,0,0,0,129.2,61.06V450.94A39.87,39.87,0,0,0,169,490.76H343A39.86,39.86,0,0,0,382.8,450.94ZM169,32.71H343a28.38,28.38,0,0,1,28.35,28.35V415.17H140.67V96.83H351.25a5.74,5.74,0,1,0,0-11.47H140.67V61.06A28.38,28.38,0,0,1,169,32.71ZM140.67,450.94v-24.3H371.33v24.3A28.38,28.38,0,0,1,343,479.29H169A28.38,28.38,0,0,1,140.67,450.94Z"/><path d="M231.17,64.77h49.66a5.74,5.74,0,0,0,0-11.47H231.17a5.74,5.74,0,0,0,0,11.47Z"/><path d="M280.83,446.86H231.17a5.74,5.74,0,0,0,0,11.47h49.66a5.74,5.74,0,0,0,0-11.47Z"/><path d="M302.86,61.23a6.75,6.75,0,0,0,.53,1,7.56,7.56,0,0,0,.72.87,5.4,5.4,0,0,0,.87.71,5.87,5.87,0,0,0,1,.53,5.63,5.63,0,0,0,1.08.33,5.91,5.91,0,0,0,1.12.11,5.7,5.7,0,0,0,4.76-2.55,6.75,6.75,0,0,0,.53-1,6.17,6.17,0,0,0,.33-1.08A6,6,0,0,0,313.9,59,5.73,5.73,0,0,0,304.11,55a6.65,6.65,0,0,0-.72.87,6.75,6.75,0,0,0-.53,1,5.79,5.79,0,0,0-.31,1.08,5.24,5.24,0,0,0,0,2.23A5.39,5.39,0,0,0,302.86,61.23Z"/><path d="M296.3,307.64a65,65,0,0,1-100.13-74.92,5.74,5.74,0,0,0-10.71-4.11,76.47,76.47,0,0,0,117.81,88.14,5.74,5.74,0,1,0-7-9.11Z"/><path d="M256.85,179.55a5.74,5.74,0,0,0,0,11.47,65.05,65.05,0,0,1,65,65,5.74,5.74,0,0,0,11.47,0A76.54,76.54,0,0,0,256.85,179.55Z"/><path d="M214.36,205.22a5.73,5.73,0,0,0,3.45-1.16c.76-.58,1.55-1.14,2.34-1.69a5.73,5.73,0,1,0-6.48-9.46c-.94.64-1.86,1.31-2.77,2a5.74,5.74,0,0,0,3.46,10.32Z"/><path d="M253.19,261.73h7.32a6.93,6.93,0,0,1,0,13.86h-14.2a5.74,5.74,0,0,0,0,11.47h4.81v4a5.74,5.74,0,0,0,11.47,0v-4.09a18.4,18.4,0,0,0-2.08-36.68h-7.32a6.93,6.93,0,1,1,0-13.85h14.2a5.74,5.74,0,1,0,0-11.47h-4.8v-4a5.74,5.74,0,0,0-11.47,0v4.09a18.39,18.39,0,0,0,2.07,36.67Z"/></svg>